<svg xmlns="http://www.w3.org/2000/svg" xmlns:xlink="http://www.w3.org/1999/xlink" xml:space="preserve" version="1.1" style="shape-rendering:geometricPrecision;text-rendering:geometricPrecision;image-rendering:optimizeQuality;" viewBox="0 0 100 125" x="0px" y="0px" fill-rule="evenodd" clip-rule="evenodd"><defs><style type="text/css">
   
    .fil0 {fill:black}
   
  </style></defs><g><path class="fil0" d="M29.96 74c-5.46,-2.73 -9.07,-14.61 -8.03,-19.68 3.44,0.56 5.17,0.54 6.31,-0.01 -2.22,-2.98 -3.51,-3.14 -5.52,-4.03 0.32,-1.71 1.48,-7.02 3.02,-9.5 3.35,2.79 4.84,3.52 9.22,3.85 -2.05,-2.89 -5.31,-5.24 -6.82,-9.07 0.58,-1.42 1.58,-2.37 3.11,-3.01 1.56,0.54 5.86,9.02 10.97,11.87 3.54,-4.74 -8.1,-14 -5.42,-16.17 4.03,-4.09 15.6,-14.12 19.17,-13.82 2.21,0.31 4.27,2.73 6.27,4.08 -0.53,-1.8 -0.78,-5.63 -0.67,-6.54 4.13,-2.41 16.55,-7.95 21.68,-7.86 -19.87,14.25 -37.89,49.68 -53.29,69.89zm53.47 -69.76c2.4,2.77 -4.99,15.18 -5.29,20.07 -0.32,9.9 -11.44,3.75 -13.66,6.72 0.46,2.79 5.45,4.12 10.65,4.95 -0.5,3.61 -4.97,14.64 -7.17,18.12 -5.09,1.62 -11.32,-2.86 -13.45,-3.19 3.13,6.6 9.74,6.63 12.13,6.78 -3.97,7.44 -8.25,12.12 -11.72,13.99 -1.48,-0.54 -5.83,-3.86 -8.14,-5.47 1.15,1.86 1.88,5.16 4.88,7.66 -5.58,3.61 -11.48,3.59 -19.61,1.29 9.97,-15.06 37,-60.13 51.38,-70.92zm-52.17 72.23c8.03,3.18 15.47,2.38 21.81,-1.14 1.71,-1.33 -1.26,-3.14 -2.31,-4.39 2.52,2.35 4.13,3.14 5.73,2.15 4.97,-3.76 9.11,-9.28 12.13,-15.81 -0.2,-1.48 -7.17,-0.09 -11.04,-3.92 5.87,3.27 8.15,1.91 11.33,3 3.52,-6.54 6.92,-14.28 8.55,-21.43 -3.83,-1.79 -6.77,-0.99 -10.69,-3.15 4.7,-0.36 11.92,2.48 13.17,-7.29 0.57,-5.82 8.53,-18.39 4.47,-21.55 -3.38,-2.06 -15.54,3.45 -24.15,7.44 -1.19,0.58 -0.89,2.59 -0.65,3.72 -1.15,-1.37 -3.33,-2.02 -4.05,-1.79 -6.46,2.01 -15.33,9.61 -20.09,14.75 -3.41,3.82 0.55,4.85 5.55,14.25 -4.09,-4.04 -6.24,-8.66 -9.01,-11.37 -3.13,1.32 -5.25,3.5 -5.99,5.2 0.37,1.92 2.84,5.29 4.38,6.59 -2.31,-1.09 -3.78,-2.75 -5.7,-4.29 -5.71,15.59 -4.8,13.66 -0.38,15.54 -2.82,-0.51 -3.92,-1.85 -4.39,0.9 -1.12,6.76 3.25,18.68 9.14,21.5 -6.22,9.45 -8.19,12.1 -14.63,20.03 0.54,0.7 1.81,1.67 2.42,2.1 2.41,-2.9 13.63,-19.94 14.4,-21.04z"/></g><text x="0" y="115" fill="#000000" font-size="5px" font-weight="bold" font-family="'Helvetica Neue', Helvetica, Arial-Unicode, Arial, Sans-serif">Created by Fardan</text><text x="0" y="120" fill="#000000" font-size="5px" font-weight="bold" font-family="'Helvetica Neue', Helvetica, Arial-Unicode, Arial, Sans-serif">from the Noun Project</text></svg>